<svg width="88" height="88" fill="none" xmlns="http://www.w3.org/2000/svg"><circle cx="44" cy="44" r="44" fill="#36536B"/><mask id="a" style="mask-type:alpha" maskUnits="userSpaceOnUse" x="0" y="0" width="88" height="88"><circle cx="44" cy="44" r="44" fill="#fff"/></mask><path fill-rule="evenodd" clip-rule="evenodd" d="M34.346 42.141a2.904 2.904 0 0 1-2.02.821 2.922 2.922 0 0 1-2.92-2.919c0-1.609 1.31-2.918 2.92-2.918 1.609 0 2.918 1.31 2.918 2.918 0 .092-.012.18-.024.269a4.885 4.885 0 0 0-.012.085l2.88 1.44a2.904 2.904 0 0 1 2.02-.82c.45 0 .87.11 1.25.292l3.908-3.907a2.884 2.884 0 0 1-.293-1.25c0-1.61 1.31-2.919 2.919-2.919.597 0 1.152.182 1.615.491l3.395-2.545a2.874 2.874 0 0 1-.146-.864c0-1.61 1.31-2.919 2.919-2.919s2.918 1.31 2.918 2.919-1.31 2.918-2.919 2.918a2.9 2.9 0 0 1-1.615-.49l-3.395 2.544c.087.275.146.562.146.865 0 1.61-1.31 2.919-2.919 2.919-.449 0-.87-.11-1.25-.293l-3.907 3.907c.183.38.293.8.293 1.25 0 1.61-1.31 2.918-2.919 2.918a2.922 2.922 0 0 1-2.918-2.918c0-.092.012-.18.024-.268l.012-.086-2.88-1.44Zm24.247 16.517h1.038a.972.972 0 1 1 0 1.945H28.369a.972.972 0 1 1 0-1.945h1.038V47.826c0-.537.435-.973.973-.973h3.891c.538 0 .973.436.973.973v10.832h1.946v-6.94c0-.538.435-.973.973-.973h3.891c.538 0 .973.435.973.973v6.94h1.946V43.935c0-.538.435-.973.973-.973h3.891c.538 0 .973.435.973.973v14.723h1.946v-20.56c0-.538.435-.973.973-.973h3.891c.538 0 .973.435.973.973v20.56Z" fill="#fff"/></svg>