<svg width="88" height="88" fill="none" xmlns="http://www.w3.org/2000/svg"><circle cx="44" cy="44" r="44" fill="#36536B"/><mask id="a" style="mask-type:alpha" maskUnits="userSpaceOnUse" x="0" y="0" width="88" height="88"><circle cx="44" cy="44" r="44" fill="#fff"/></mask><path fill-rule="evenodd" clip-rule="evenodd" d="M60.56 37.683v.28c0 .43-.348.78-.778.78H28.175a.778.778 0 0 1-.779-.78v-.28a4.475 4.475 0 0 1 4.476-4.475h24.213a4.475 4.475 0 0 1 4.476 4.475Zm-33.164 4.561v8.583a4.475 4.475 0 0 0 4.476 4.476h24.213a4.475 4.475 0 0 0 4.476-4.476v-8.583a.778.778 0 0 0-.779-.778H28.175a.778.778 0 0 0-.779.778Zm8.28 5.449h-2.075a1.362 1.362 0 1 1 0-2.724h2.075a1.362 1.362 0 1 1 0 2.724Z" fill="#fff"/></svg>