<svg width="88" height="88" fill="none" xmlns="http://www.w3.org/2000/svg"><circle cx="44" cy="44" r="44" fill="#36536B"/><mask id="a" style="mask-type:alpha" maskUnits="userSpaceOnUse" x="0" y="0" width="88" height="88"><circle cx="44" cy="44" r="44" fill="#fff"/></mask><path fill-rule="evenodd" clip-rule="evenodd" d="M49.806 26.05 47.23 33.56H32.558l-2.576-7.508 4.27-2.806 2.82 1.854 2.822-1.854 2.821 1.854 2.822-1.854 4.27 2.806Zm-16.764 9.927h13.704v2.419H33.042v-2.419Zm12.575 14.026h6.147a11.283 11.283 0 0 0-.437-1.05l-3.875-8.14H32.337l-3.876 8.14a10.826 10.826 0 0 0 .624 10.487 10.826 10.826 0 0 0 9.201 5.073h3.216c.572 0 1.14-.045 1.697-.13v-7.125h2.418v-7.255Zm-2.727 3.864c-.152.31-.353.563-.602.76a2.623 2.623 0 0 1-.851.448c-.32.1-.65.162-.992.185v1.353h-.89v-1.376a7.281 7.281 0 0 1-1.527-.302 6.275 6.275 0 0 1-1.358-.593l.935-1.913c.2.127.416.247.646.358.193.098.418.193.674.286.256.093.518.158.785.195v-.984a8.07 8.07 0 0 1-.69-.212c-.35-.12-.65-.248-.902-.386a2.437 2.437 0 0 1-.624-.47 1.68 1.68 0 0 1-.362-.598 2.339 2.339 0 0 1-.117-.772c0-.403.067-.76.2-1.069.134-.309.316-.576.546-.8.23-.223.5-.402.808-.536.308-.135.636-.22.985-.258v-1.13h.891v1.142c.245.03.483.074.713.134.23.06.451.129.663.207.212.078.41.16.596.246l.512.24-.936 1.801a4.61 4.61 0 0 0-.534-.29 4.629 4.629 0 0 0-.551-.23 4.104 4.104 0 0 0-.619-.162v1.007c.067.015.138.035.212.061.074.026.152.05.234.073.364.112.692.235.986.369.293.134.544.293.751.475.208.183.368.405.48.666.11.261.166.578.166.951 0 .44-.076.815-.228 1.124Zm-3.625-4.38c0 .112.037.204.111.274.075.072.186.137.334.196v-.85c-.297.037-.445.164-.445.38Zm1.024 2.987v.828c.179-.015.305-.052.379-.112a.287.287 0 0 0 .111-.235.355.355 0 0 0-.133-.274 1.24 1.24 0 0 0-.357-.207Zm7.747-.053H60.53v4.837H48.036v-4.837Zm10.076 7.255H45.617v4.837h12.495v-4.837Z" fill="#EDF3F8"/></svg>